<?xml version="1.0" standalone="no"?>
<!DOCTYPE svg PUBLIC "-//W3C//DTD SVG 20010904//EN"
 "http://www.w3.org/TR/2001/REC-SVG-20010904/DTD/svg10.dtd">
<svg version="1.0" xmlns="http://www.w3.org/2000/svg"
 width="255.000000pt" height="167.000000pt" viewBox="0 0 255.000000 167.000000"
 preserveAspectRatio="xMidYMid meet">

<g transform="translate(0.000000,167.000000) scale(0.100000,-0.100000)"
fill="#000000" stroke="none">
<path d="M563 1636 c-61 -29 -97 -77 -113 -152 -8 -35 -10 -194 -8 -475 3
-414 4 -425 25 -465 12 -22 38 -55 57 -72 117 -102 336 -46 376 96 12 44 14
269 2 276 -5 3 -40 -5 -78 -17 l-69 -22 -5 -113 c-4 -98 -8 -116 -24 -128 -26
-18 -66 -18 -94 2 -21 14 -22 22 -22 149 l0 134 53 15 c28 8 96 27 150 42 l97
28 0 280 c0 310 -4 329 -66 388 -67 63 -187 77 -281 34z m171 -128 c13 -19 16
-59 16 -240 l0 -217 -57 -16 c-32 -9 -64 -18 -70 -20 -10 -3 -13 48 -13 237 0
273 1 278 71 278 28 0 42 -6 53 -22z"/>
<path d="M1167 1636 c-34 -23 -35 -23 -40 -5 -5 18 -13 20 -79 17 l-73 -3 -3
-603 -2 -603 77 3 78 3 5 526 c4 425 8 529 19 542 18 22 84 22 102 0 11 -13
15 -102 20 -442 6 -470 9 -497 70 -566 52 -59 92 -65 416 -65 l283 0 0 64 c0
62 -1 65 -27 70 -16 3 -122 5 -238 3 -198 -2 -212 -1 -250 19 -25 14 -50 39
-65 65 l-25 44 -5 427 c-5 413 -6 427 -26 455 -38 51 -81 73 -144 73 -44 0
-65 -6 -93 -24z"/>
<path d="M37 1644 c-4 -4 -7 -34 -7 -66 l0 -58 95 0 c52 0 95 -3 95 -6 0 -4
-48 -214 -106 -468 -77 -332 -107 -481 -108 -531 l-1 -70 190 0 190 0 0 55 0
55 -108 3 c-97 2 -108 5 -103 20 3 9 52 226 111 481 85 371 105 476 103 525
l-3 61 -171 3 c-93 1 -173 -1 -177 -4z"/>
<path d="M1547 1644 c-4 -4 -7 -190 -7 -413 l0 -406 24 -52 c69 -147 304 -149
386 -3 l25 45 3 403 c2 305 0 407 -9 418 -9 11 -29 14 -73 12 l-61 -3 -5 -410
c-3 -226 -9 -416 -13 -423 -20 -31 -73 -35 -119 -8 -1 0 -5 190 -8 421 l-5
420 -65 3 c-36 2 -69 0 -73 -4z"/>
<path d="M2088 1644 c-5 -4 -8 -277 -8 -606 l0 -598 80 0 80 0 0 145 0 145 59
0 c116 0 185 43 223 139 20 53 22 73 22 326 1 149 -3 287 -7 308 -4 20 -21 53
-38 71 -48 55 -94 68 -259 74 -80 2 -148 1 -152 -4z m245 -136 c45 -24 46 -30
47 -306 0 -159 -4 -271 -10 -282 -12 -23 -67 -40 -104 -33 l-26 5 0 314 0 314
36 0 c19 0 45 -5 57 -12z"/>
<path d="M1575 290 c-37 -6 -34 -26 3 -22 31 4 36 7 31 19 -2 5 -17 6 -34 3z"/>
<path d="M366 234 c-27 -26 -19 -52 24 -79 22 -14 40 -29 40 -34 0 -14 -29
-22 -56 -15 -17 4 -24 2 -24 -9 0 -20 42 -30 74 -17 56 21 54 76 -4 100 -39
16 -39 38 2 42 17 2 33 9 36 16 6 18 -73 16 -92 -4z"/>
<path d="M602 243 c-23 -9 -44 -64 -38 -98 13 -66 92 -93 139 -47 32 32 31
106 -2 133 -22 18 -70 24 -99 12z m78 -42 c15 -29 12 -56 -9 -82 -16 -20 -23
-22 -38 -13 -47 29 -38 114 11 114 15 0 30 -8 36 -19z"/>
<path d="M830 165 l0 -85 55 0 c42 0 55 3 55 15 0 10 -11 15 -35 15 l-35 0 0
70 c0 63 -2 70 -20 70 -18 0 -20 -7 -20 -85z"/>
<path d="M1030 186 c0 -78 20 -109 70 -109 50 0 70 31 70 109 0 57 -2 64 -20
64 -18 0 -20 -7 -20 -64 0 -44 -5 -67 -15 -76 -28 -23 -45 5 -45 76 0 57 -2
64 -20 64 -18 0 -20 -7 -20 -64z"/>
<path d="M1308 230 c-14 -11 -28 -32 -31 -47 -7 -39 17 -91 48 -103 14 -5 23
-14 20 -20 -3 -5 0 -10 7 -10 8 -1 6 -6 -6 -15 -19 -15 -19 -15 2 -15 26 0 41
28 21 40 -9 6 -5 11 14 16 29 7 32 31 5 26 -30 -5 -65 16 -72 43 -10 38 16 73
56 77 17 2 33 9 36 16 6 21 -72 15 -100 -8z"/>
<path d="M1521 224 c-21 -26 -27 -76 -15 -109 4 -8 20 -23 36 -31 24 -12 36
-13 64 -4 41 14 54 35 54 88 0 50 -32 82 -82 82 -28 0 -42 -7 -57 -26z m87
-16 c20 -20 15 -86 -8 -98 -32 -17 -60 4 -60 45 0 18 3 40 6 49 7 19 45 21 62
4z"/>
<path d="M1760 165 l0 -85 55 0 c42 0 55 3 55 15 0 10 -11 15 -35 15 -28 0
-35 4 -35 20 0 16 7 20 35 20 24 0 35 5 35 15 0 10 -11 15 -35 15 -28 0 -35 4
-35 20 0 16 7 20 35 20 24 0 35 5 35 15 0 12 -13 15 -55 15 l-55 0 0 -85z"/>
<path d="M1986 231 c-24 -27 -12 -58 30 -78 19 -9 34 -22 34 -29 0 -16 -27
-25 -56 -18 -17 4 -24 2 -24 -9 0 -40 106 -23 116 19 7 29 -6 47 -46 64 -42
17 -39 40 5 40 24 0 35 5 35 15 0 23 -72 20 -94 -4z"/>
</g>
</svg>
